# xmcd
#
# Track frame offsets: 
#        150
#        26176
#        55000
#        77738
#        88779
#        114849
#        142996
#        152760
#        182593
#        197506
#        220382
#
# Disc length: 3344 seconds
#
# Revision: 15
# Processed by: cddbd v1.5.2PL0 Copyright (c) Steve Scherf et al.
# Submitted via: ExactAudioCopy v1.0b3
#
DISCID=8c0d0e0b
DTITLE=Various Artist - Hum Dil De Chuke Sanam
DYEAR=1999
DGENRE=Bollywood
TTITLE0=Udit Narayan and Alka Yagnik - Chand Chupa Badal Mein
TTITLE1=Kavita Krishnamurthy and Karsan Sargathi - Nimbooda
TTITLE2=Kumar Sanu and Kavita Krishnamurthy - Aankhon Ki Gustakhiyan
TTITLE3=Shankar Mahadevan - Man Mohini
TTITLE4=Hariharan and Kavita Krishnamurthy - Jhonka Hawa Ka
TTITLE5=Kavita Krishnamurthy, Vinod Rathod and Karsan Sargathia - Dholi 
TTITLE5=Taro Dhol Baaje
TTITLE6=Shankar Mahadevan and Kavita Krishnamurthy - Love Theme
TTITLE7=K.K. and Dominique - Tadap Tadap
TTITLE8=Ustad Sultan Khan, Shankar Mahadevan and Kavita Krishnamurthy - 
TTITLE8=Albela Sajan
TTITLE9=Shankar Mahadevan, Damayanti Bardai, K.K. and Jyotsna Hardikar /
TTITLE9=Kaipoche
TTITLE10=Kavita Krishnamurthy and Mohammad Salamat - Hum Dil De Chuke Sa
TTITLE10=nam
EXTD=ID3G:   0
EXTT0=
EXTT1=
EXTT2=
EXTT3=
EXTT4=
EXTT5=
EXTT6=
EXTT7=
EXTT8=
EXTT9=
EXTT10=
PLAYORDER=
